Coordinates
version=1
nRows=13
nColumns=63
inDegrees=yes

Units are S.I. units (second, meters, Newtons, ...)
If the header above contains a line with 'inDegrees', this indicates whether rotational values are in degrees (yes) or radians (no).

endheader
time	pelvis_tilt	pelvis_list	pelvis_rotation	pelvis_tx	pelvis_ty	pelvis_tz	hip_flexion_r	hip_adduction_r	hip_rotation_r	knee_angle_r	knee_angle_r_beta	ankle_angle_r	subtalar_angle_r	mtp_angle_r	hip_flexion_l	hip_adduction_l	hip_rotation_l	knee_angle_l	knee_angle_l_beta	ankle_angle_l	subtalar_angle_l	mtp_angle_l	L5_S1_Flex_Ext	L5_S1_Lat_Bending	L5_S1_axial_rotation	L4_L5_Flex_Ext	L4_L5_Lat_Bending	L4_L5_axial_rotation	L3_L4_Flex_Ext	L3_L4_Lat_Bending	L3_L4_axial_rotation	L2_L3_Flex_Ext	L2_L3_Lat_Bending	L2_L3_axial_rotation	L1_L2_Flex_Ext	L1_L2_Lat_Bending	L1_L2_axial_rotation	L1_T12_Flex_Ext	L1_T12_Lat_Bending	L1_T12_axial_rotation	Abs_r3	Abs_r2	Abs_r1	Abs_t1	Abs_t2	neck_flexion	neck_bending	neck_rotation	arm_flex_r	arm_add_r	arm_rot_r	elbow_flex_r	pro_sup_r	wrist_flex_r	wrist_dev_r	arm_flex_l	arm_add_l	arm_rot_l	elbow_flex_l	pro_sup_l	wrist_flex_l	wrist_dev_l
0.000000	0.013726	-5.005982	86.576415	0.355401	0.927997	0.575616	3.762449	0.691598	0.933948	1.136311	0.019832	24.753003	2.293309	0.000000	5.066913	-3.378595	13.364760	0.306370	0.005347	27.677905	-0.806418	0.000000	0.077032	-0.031845	0.596104	0.143056	-0.042354	0.633361	0.126556	-0.077427	0.633361	0.088040	-0.077427	0.521591	0.071532	-0.064938	0.484335	0.044016	-0.049328	0.447078	0.550233	-0.360234	3.315352	0.000000	0.000000	27.513848	-2.460439	-13.759326	-0.046614	-12.954848	30.441703	55.232311	33.507968	6.990231	18.250957	10.340351	-14.685734	55.310145	51.041075	72.820398	12.500930	-3.442539
0.016667	-0.476636	-5.134539	84.707860	0.356951	0.927534	0.579456	4.365170	0.290407	3.961795	0.965926	0.016859	26.255858	2.488099	0.000000	5.227110	-3.051798	12.681875	0.319432	0.005575	27.588099	-2.953141	0.000000	0.101013	-0.086080	0.983350	0.187592	-0.114487	1.044809	0.165955	-0.209295	1.044809	0.115448	-0.209295	0.860431	0.093801	-0.175535	0.798972	0.057719	-0.133338	0.737513	0.721529	-0.973756	5.469098	0.000000	0.000000	27.606160	-2.591501	-14.002555	0.783613	-12.702974	32.599342	53.523344	53.393142	11.502232	11.157596	11.984671	-14.033233	59.391075	52.116215	66.820394	8.779205	0.369914
0.033333	-0.895565	-5.213615	83.226318	0.358027	0.927128	0.582671	4.825093	-0.071132	6.436307	0.825885	0.014414	27.435088	2.537033	0.000000	5.352128	-2.753256	12.015211	0.331321	0.005783	27.599147	-4.568740	0.000000	0.119248	-0.132255	1.265038	0.221455	-0.175899	1.344103	0.195912	-0.321565	1.344103	0.136288	-0.321565	1.106909	0.110733	-0.269695	1.027844	0.068138	-0.204863	0.948779	0.851775	-1.496097	7.035764	0.000000	0.000000	27.679443	-2.620359	-14.036074	1.606768	-12.533878	34.942486	52.147775	67.476904	15.043275	5.849770	13.153310	-13.569074	62.363743	53.048379	62.289764	5.979235	3.401504
0.050000	-1.247023	-5.247873	82.097887	0.358675	0.926776	0.585318	5.155466	-0.393644	8.403551	0.713466	0.012452	28.322493	2.459241	0.000000	5.444842	-2.483097	11.368979	0.342142	0.005972	27.697079	-5.704195	0.000000	0.132255	-0.170885	1.451621	0.245610	-0.227277	1.542347	0.217281	-0.415490	1.542347	0.151154	-0.415490	1.270168	0.122812	-0.348469	1.179442	0.075570	-0.264701	1.088716	0.944681	-1.933086	8.073481	0.000000	0.000000	27.735247	-2.559038	-13.883259	2.415954	-12.439401	37.426066	51.078796	76.372776	17.708733	2.147781	13.894656	-13.273359	64.336141	53.848322	59.089997	4.022038	5.728247
0.066667	-1.534974	-5.241980	81.288669	0.358941	0.926478	0.587452	5.369539	-0.677757	9.909595	0.625946	0.010925	28.949872	2.273856	0.000000	5.508126	-2.241444	10.747390	0.352002	0.006144	27.867924	-6.410486	0.000000	0.140553	-0.202485	1.553550	0.261021	-0.269305	1.650647	0.230915	-0.492323	1.650647	0.160638	-0.492323	1.359356	0.130518	-0.412908	1.262259	0.080312	-0.313650	1.165163	1.003957	-2.290553	8.640380	0.000000	0.000000	27.775120	-2.419566	-13.567484	3.204277	-12.411379	40.005014	50.289598	80.694282	19.593979	-0.128066	14.257099	-13.126196	65.416260	54.526799	57.082584	2.828629	7.426155
0.083333	-1.763382	-5.200600	80.764763	0.358870	0.926233	0.589131	5.480558	-0.924095	11.000507	0.560601	0.009784	29.349028	2.000007	0.000000	5.544853	-2.028424	10.154658	0.361008	0.006301	28.097710	-6.738591	0.000000	0.144663	-0.227571	1.581278	0.268653	-0.302669	1.680107	0.237666	-0.553316	1.680107	0.165335	-0.553316	1.383618	0.134334	-0.464062	1.284788	0.082660	-0.352507	1.185958	1.033311	-2.574327	8.794592	0.000000	0.000000	27.800611	-2.213967	-13.112125	3.964839	-12.441653	42.634261	49.753373	81.054945	20.794385	-1.157467	14.289028	-13.107688	65.712092	55.094562	56.129014	2.320027	8.571241
0.100000	-1.936208	-5.128399	80.492269	0.358508	0.926041	0.590410	5.501774	-1.133284	11.722355	0.514709	0.008983	29.551759	1.656827	0.000000	5.557898	-1.844163	9.594992	0.369265	0.006445	28.372467	-6.739491	0.000000	0.145103	-0.246657	1.545256	0.269470	-0.328054	1.641834	0.238389	-0.599722	1.641834	0.165838	-0.599722	1.352099	0.134742	-0.502983	1.255520	0.082912	-0.382072	1.158942	1.036455	-2.790236	8.594248	0.000000	0.000000	27.813269	-1.954268	-12.540556	4.690746	-12.522061	45.268738	49.443313	78.068288	21.405325	-1.120120	14.038831	-13.197941	65.331630	55.562367	56.090775	2.417248	9.239520
0.116667	-2.057417	-5.030041	80.437288	0.357902	0.925900	0.591345	5.446433	-1.305951	12.121206	0.485548	0.008474	29.589866	1.263446	0.000000	5.550135	-1.688786	9.072606	0.376879	0.006578	28.678225	-6.464165	0.000000	0.142393	-0.260260	1.455936	0.264438	-0.346145	1.546932	0.233937	-0.632795	1.546932	0.162741	-0.632795	1.273944	0.132226	-0.530722	1.182948	0.081363	-0.403142	1.091952	1.017097	-2.944109	8.097479	0.000000	0.000000	27.814643	-1.652494	-11.876153	5.375102	-12.644441	47.863376	49.332610	72.347835	21.522172	-0.195720	13.554899	-13.377060	64.382865	55.940967	56.829358	3.041311	9.507005
0.133333	-2.130972	-4.910193	80.565918	0.357097	0.925810	0.591993	5.327786	-1.442721	12.243130	0.470394	0.008210	29.495149	0.838995	0.000000	5.524439	-1.562419	8.591709	0.383958	0.006701	29.001013	-5.963593	0.000000	0.137052	-0.268893	1.323771	0.254519	-0.357628	1.406507	0.225162	-0.653787	1.406507	0.156637	-0.653787	1.158300	0.127266	-0.548327	1.075564	0.078311	-0.416516	0.992828	0.978947	-3.041776	7.362418	0.000000	0.000000	27.806282	-1.320673	-11.142290	6.011009	-12.800632	50.373106	49.394457	64.507108	21.240298	1.436037	12.885619	-13.625150	62.973789	56.241116	58.206252	4.113232	9.449709
0.150000	-2.160835	-4.773518	80.844262	0.356140	0.925770	0.592409	5.159079	-1.544219	12.134192	0.466524	0.008142	29.299409	0.402606	0.000000	5.483682	-1.465186	8.156515	0.390606	0.006817	29.326860	-5.288754	0.000000	0.129599	-0.273074	1.159213	0.240679	-0.363188	1.231664	0.212919	-0.663952	1.231664	0.148119	-0.663952	1.014311	0.120346	-0.556852	0.941860	0.074053	-0.422991	0.869410	0.925716	-3.089065	6.447193	0.000000	0.000000	27.789734	-0.970830	-10.362343	6.591574	-12.982472	52.752861	49.602044	55.159632	20.655076	3.595454	12.079381	-13.922316	61.212395	56.473569	60.082946	5.554029	9.143645
0.166667	-2.150970	-4.624683	81.238417	0.355075	0.925779	0.592650	4.953562	-1.611073	11.840462	0.471216	0.008224	29.034446	-0.026590	0.000000	5.430739	-1.397215	7.771233	0.396932	0.006928	29.641794	-4.490629	0.000000	0.120555	-0.273316	0.972713	0.223882	-0.363510	1.033508	0.198060	-0.664541	1.033508	0.137782	-0.664541	0.851124	0.111947	-0.557346	0.790329	0.068885	-0.423366	0.729535	0.861111	-3.091805	5.409938	0.000000	0.000000	27.766549	-0.614991	-9.559687	7.109899	-13.181802	54.957571	49.928565	44.918929	19.861880	6.102834	11.184574	-14.248664	59.206674	56.649080	62.320929	7.284719	8.664828
0.183333	-2.120046	-4.483396	81.690593	0.354010	0.925818	0.592812	4.751608	-1.650534	11.373555	0.489374	0.008541	28.715926	-0.325079	0.000000	5.381979	-1.350718	7.515523	0.402914	0.007032	29.881930	-3.698900	0.000000	0.113022	-0.272889	0.786463	0.209893	-0.362943	0.835617	0.185684	-0.663503	0.835617	0.129173	-0.663503	0.688155	0.104952	-0.556476	0.639001	0.064581	-0.422706	0.589847	0.807306	-3.086980	4.374073	0.000000	0.000000	27.758216	-0.370104	-8.892626	7.571080	-13.399351	56.819402	50.265655	35.979593	19.143810	8.142256	10.334171	-14.511654	57.376232	56.650127	64.588548	9.283680	8.099660
0.200000	-2.044951	-4.326270	82.177709	0.352936	0.925962	0.592974	4.530449	-1.646424	10.892283	0.494634	0.008633	28.509558	-0.586232	0.000000	5.315759	-1.345288	7.303137	0.407321	0.007109	30.086436	-2.884579	0.000000	0.102574	-0.267918	0.605375	0.190491	-0.356331	0.643211	0.168519	-0.651416	0.643211	0.117232	-0.651416	0.529703	0.095250	-0.546339	0.491867	0.058611	-0.415005	0.454031	0.732678	-3.030743	3.366912	0.000000	0.000000	27.733023	-0.104531	-8.204185	7.906166	-13.617846	58.367095	50.723016	27.255329	18.530938	10.398143	9.509526	-14.781985	55.448409	56.759010	66.849666	11.339656	7.706035
